Patient4_TMGait_0pt6_02_left_13_EMG.mot
version=1
nRows=16
nColumns=33
inDegrees=no
endheader
time	1LAddLong	2LGlutMax	3LGlutMed	4LIliopsoas	5LSemiMemb	6LBicFemLong	7LRecFem	8LVastMed	9LVastLat	10LGasMed	11LTibAnt	12lTibPost	13LPeroneusLong	14LSol	15LExtDigLong	16LFlexDigLong	17RAddLong	18RGlutMax	19RGlutMed	20RIliopsoas	21RSemiMemb	22RBicFemLong	23RRecFem	24RVastMed	25RVastLat	26RGasMed	27RTibAnt	28RTibPost	29RPeroneusLong	30RSol	31RExtDigLong	32RFlexDigLong
15.98	0.003204	0.11581	-0.04837	-0.004272	0.012054	-0.036316	-0.12466	0.006409	0.2536	-0.018768	-0.18845	0.000916	0.15137	-0.002747	-0.30533	0.025177	0.005646	-0.36148	-0.12466	-0.040588	0.030975	-0.1207	0.068359	-0.090027	-0.043488	0.14938	0.063171	-0.013275	0.22964	0.03418	-0.000153	-0.012207
15.981	0.00946	0.10376	-0.04837	0.011597	0.009003	-0.041962	-0.1062	0.004272	0.24048	0.044708	-0.10147	0.007935	0.075073	-0.028076	-0.42099	0.010071	0.011597	-0.33798	-0.19119	-0.047302	0.035706	-0.12344	-0.18662	-0.059509	0.017853	0.072784	0.080872	-0.032501	0.072327	0.20493	-0.001526	-0.006866
15.982	0.006866	0.058289	-0.061646	-0.002289	-0.004883	-0.04425	-0.11108	0.007172	0.24506	0.041656	0.084534	-0.000153	0.008392	-0.045471	-0.46356	0	0.001373	-0.2359	-0.029144	-0.047302	-0.029144	-0.10437	-0.17212	-0.073242	-0.010986	0.048981	0.13351	-0.046997	0.006866	0.38376	-0.003662	-0.004578
15.983	0.007324	0.018616	-0.054779	-0.015259	0.009766	-0.04364	-0.10498	0.002594	0.2417	-0.001373	0.15579	0.001526	0.006104	-0.0177	0.36514	0.003967	0.007477	-0.13534	-0.050354	0.017548	-0.12054	-0.036316	-0.16815	-0.030365	-0.036316	0.021362	0.12314	-0.062866	-0.015717	0.41046	-0.003052	-0.005798
15.984	0.006104	-0.052032	-0.066986	0.005646	-0.064392	-0.051575	-0.11459	0.00351	0.24124	-0.053864	0.24521	-0.001984	0.029907	-0.017548	-0.1413	0.000305	-0.002747	-0.097504	0.054169	0.053558	-0.23987	0.021362	-0.19531	-0.016327	0.059814	-0.003815	0.067139	-0.061035	0.015411	0.26825	-0.001678	-0.006714
15.985	0.010681	-0.091553	-0.064545	0.005798	-0.01358	-0.062561	-0.10346	0.002289	0.23254	-0.054626	0.035248	0.007172	0.066681	-0.049286	-0.12344	0.003204	-0.007477	-0.053253	0.24139	0.042419	-0.058899	-0.02121	-0.06897	-0.014648	0.084534	-0.042725	-0.12238	-0.059967	-0.10498	-0.15533	0.002136	-0.003662
15.986	0.010529	-0.13534	-0.082092	0.009003	-0.007019	-0.066833	-0.10101	0.008392	0.2359	-0.059357	-0.23285	0.001984	0.14069	-0.038452	-0.17777	0.001831	-0.013733	-0.023041	0.15579	-0.005341	0.2124	-0.13062	-0.00473	0.016479	0.065918	-0.053558	-0.15503	-0.06958	-0.4512	-0.30243	0.001068	-0.007019
15.987	0.009918	-0.20035	-0.080566	0.006256	-0.009918	-0.07843	-0.1091	0.001984	0.23071	-0.04715	-0.30609	0.000916	0.10605	-0.011597	-0.23727	0.004578	-0.007629	0.056	0.15152	0.009918	0.15457	-0.10559	-0.033722	0.010071	0.065308	-0.08667	-0.074615	-0.078583	-0.71228	-0.1709	-0.001678	0.000763
15.988	0.006866	-0.26077	-0.058441	0.012665	-0.003204	-0.077209	-0.10696	0.00412	0.22614	0.001373	0.054626	-0.004272	0.036316	-0.039368	-0.086517	0.000153	0.006256	0.019379	0.10346	-0.037689	-0.033264	0.001678	0.00885	-0.10208	0.053253	-0.112	-0.037231	-0.09201	-0.26413	-0.17899	0.002441	0.000305
15.989	0.005951	-0.2623	-0.054932	0.019531	-0.010834	-0.075836	-0.094757	0.00351	0.22995	0.016022	0.14206	0.001984	0.049286	-0.04303	-0.010681	0.002289	0.032806	0.11795	0.13412	-0.06897	-0.16464	-0.010834	-0.051422	-0.16617	0.052185	-0.17975	0.000916	0.12741	-0.33646	-0.6221	0	-0.002747
15.99	0.010223	-0.30304	-0.076447	0.018921	-0.011597	-0.10422	-0.099182	0.003662	0.23025	-0.012665	0.12772	-0.000916	0.067902	-0.013123	0.40909	0.001068	0.063019	0.12054	0.11704	-0.077057	-0.2945	-0.16419	-0.027161	-0.18112	0.038605	-0.25009	-0.018463	-0.18951	-0.28763	-1.0202	0.001984	-0.00412
15.991	0.009766	-0.3421	-0.058594	0.015106	-0.010681	-0.098572	-0.095367	0.006714	0.22095	-0.030823	0.056305	-0.00351	0.086823	-0.007935	0.12604	0.007324	0.08316	0.16205	-0.007172	-0.00824	-0.14069	-0.21561	0.020142	-0.25482	0.001831	-0.24262	-0.053711	-0.2359	0.3865	-1.057	-0.001984	-0.002289
15.992	0.010681	-0.34378	-0.0737	0.018616	-0.009003	-0.099182	-0.081635	-0.000153	0.21866	-0.024261	0.021515	0.001984	0.059967	-0.062256	0.11673	0.009155	0.044556	0.15625	-0.02243	-0.004578	0.15121	-0.11047	0.001678	-0.22583	-0.002594	-0.16907	-0.087585	0.034943	0.63889	-0.88852	-0.00061	-0.003204
15.993	0.011292	-0.37186	-0.065765	0.00351	0.016022	-0.098572	-0.086365	0.001373	0.22125	-0.020294	0.00824	0.001678	0.058899	-0.10178	-0.1265	0.001068	0.024109	0.18677	0.19333	0.034943	0.34882	-0.030823	0.042877	-0.10834	-0.010376	-0.006104	-0.11231	0.054016	0.81726	-0.042267	-0.001831	-0.007477
15.994	0.009003	-0.3508	-0.071716	0.027771	-0.034637	-0.083466	-0.071869	0.00473	0.21439	-0.00946	0.072021	0.003662	0.081635	-0.091248	-0.11658	0.000916	-0.044098	0.20355	0.13062	0.047302	-0.10086	0.12421	0.004425	0.014648	0.005646	0.044708	-0.085907	-0.52551	0.41489	-0.035248	-0.001221	-0.014038
15.995	0.007782	-0.36667	-0.056763	-0.004578	-0.012665	-0.064087	-0.075378	0.00412	0.21683	-0.018311	0.11902	-0.001526	0.11322	-0.093231	-0.052338	-0.006866	-0.048676	0.21225	0.14358	0.029907	-0.12894	0.14236	0.031586	0.01236	-0.021667	-0.037231	-0.033875	0.32242	0.044098	-0.15869	-0.001831	-0.018921
